<svg width="101" height="100" viewBox="0 0 101 100" fill="none" xmlns="http://www.w3.org/2000/svg">
<circle cx="54.5" cy="48.5" r="43.5" fill="#F5F5F5"/>
<path d="M13.7728 17.1818C14.295 17.4152 14.5409 18.056 14.3195 18.6066C14.0982 19.1571 13.4903 19.4164 12.9682 19.183L1.57833 14.091C1.05617 13.8576 0.810279 13.2167 1.03165 12.6662C1.25301 12.1157 1.86083 11.8564 2.38299 12.0898L13.7728 17.1818V17.1818ZM17.7977 7.17409C18.3198 7.40749 18.5657 8.04834 18.3444 8.59887C18.123 9.14941 17.5152 9.40866 16.993 9.17526L5.60126 4.0841C5.0791 3.8507 4.83321 3.20985 5.05458 2.65931C5.27595 2.10878 5.88376 1.84953 6.40592 2.08292L17.7977 7.17409V7.17409Z" fill="#9AAAB4"/>
<path d="M44.8999 27.8579C41.6165 23.1707 36.8007 20.4395 34.0875 19.1708C34.3534 17.2611 33.396 15.3279 31.6318 14.5385L30.1566 13.8791C29.978 12.3935 29.0918 11.0432 27.691 10.4153L21.0476 7.44495C21.491 6.34005 21.0016 5.06439 19.9542 4.59538C18.9059 4.12679 17.694 4.64366 17.2502 5.74756L15.642 9.74708L15.6399 9.75032L13.2263 15.7548L11.617 19.7572C11.1725 20.8625 11.662 22.1382 12.7103 22.6068C13.7587 23.0754 14.9686 22.5593 15.413 21.454L22.0574 24.424C23.4588 25.0504 24.9956 24.7806 26.1315 23.8834L27.6094 24.544C29.3786 25.3348 31.369 24.7109 32.4839 23.1707C34.4997 24.126 39.0392 27.1111 41.6165 30.372L44.8999 27.8579Z" fill="#31373D"/>
<path d="M81.5 87C78.3 69.8 69.1667 57.1667 65 52.5L68 50C81.6 63.2 86.5 86 86.5 92H82L81.5 87Z" fill="#31373D"/>
<path d="M54.6449 72.4369C54.1157 74.8116 53.7375 77.2698 53.2005 79.8395C53.1808 79.9167 53.1558 79.9923 53.1386 80.0715C53.102 80.2363 53.0772 80.4011 53.0502 80.5654L53.0232 80.6955L53.0267 80.6943C52.4946 84.3573 54.4637 87.8238 57.6354 88.6103C60.9857 89.4422 64.4055 86.9661 65.2712 83.0795C66.1384 79.1927 64.1242 75.3696 60.7733 74.5385C60.6571 74.5091 60.5397 74.4937 60.4232 74.4736C59.1134 72.8174 59.9666 71.5362 59.9666 71.5362C59.9666 71.5362 55.2328 69.7988 54.6449 72.4369V72.4369ZM62.8449 82.4769C62.2929 84.951 60.215 86.5512 58.2055 86.0522C56.1955 85.5557 55.0134 83.1457 55.5647 80.6725C56.1161 78.1993 58.1931 76.5984 60.2018 77.0967C62.2128 77.5955 63.397 80.0044 62.8449 82.4769V82.4769Z" fill="#DD2E44"/>
<path d="M61.4727 44.8336C60.109 44.6325 58.1322 45.5246 57.9417 46.9641L54.614 72.5712C55.8278 72.8716 58.4686 72.5152 59.9665 71.5352L61.4727 44.8336V44.8336Z" fill="#99AAB5"/>
<path d="M37.1018 72.0445C38.6501 75.0661 42.3392 76.1645 45.5535 74.6655L45.5541 74.67L45.6676 74.6084C45.8103 74.5387 45.9555 74.4711 46.096 74.3901C46.1632 74.3512 46.2252 74.3069 46.2914 74.2658C48.5035 73.0476 50.6559 72.0208 52.6907 70.8608C54.9513 69.5722 52.1239 65.208 52.1239 65.208C52.1239 65.208 51.1741 66.4112 49.3163 65.5118C49.2666 65.3978 49.2221 65.2839 49.1645 65.1718C47.5285 61.9795 43.5029 60.9298 40.1697 62.827C36.8388 64.7247 35.4658 68.8523 37.1018 72.0445V72.0445ZM41.3556 65.1388C43.4764 63.9319 45.9896 64.506 46.9719 66.4221C47.9532 68.3361 47.0306 70.8684 44.9097 72.0753C42.7914 73.2842 40.2767 72.7103 39.2952 70.7948C38.3131 68.8802 39.2358 66.3479 41.3556 65.1388Z" fill="#DD2E44"/>
<path d="M76.1757 56.6946C76.7162 58.03 76.4163 60.2749 75.1483 60.845L52.5756 70.9254C51.9832 69.7687 51.6192 66.9881 52.1248 65.2075L76.1757 56.6946Z" fill="#CCD6DD"/>
<path d="M56.6006 64.8147C57.1412 64.0697 58.1531 63.9294 58.858 64.4981C59.5646 65.0681 59.6989 66.1332 59.1583 66.8782C58.6176 67.6232 57.6074 67.7648 56.9008 67.1948C56.1951 66.6254 56.0599 65.5596 56.6006 64.8147Z" fill="#99AAB5"/>
</svg>
