<svg width="100" height="100" viewBox="0 0 100 100" fill="none" xmlns="http://www.w3.org/2000/svg">
<circle cx="43.5" cy="55.5" r="43.5" fill="#F5F5F5"/>
<path d="M72.7362 73.3223C72.3319 77.2532 72.7316 85.2342 73.1038 86.2837C73.4806 87.3301 76.4689 91.6211 77.1828 92.6934C77.8036 93.6239 74.0785 96.3499 73.3296 95.546C71.9765 94.0968 68.3399 88.8235 68.0425 87.9815C67.745 87.1364 66.5689 78.3759 65.9023 73.7509L72.7362 73.3223Z" fill="#2A6797"/>
<path d="M59.2607 49.9227L55.2748 47.7582C54.5898 47.3784 55.319 45.7706 56.0054 46.1504L60.1118 48.3867L59.2607 49.9227Z" fill="#66757F"/>
<path d="M65.9362 96.0085C64.9325 94.6905 58.7378 96.399 56.6037 97.4683C55.179 98.1837 55.6015 99.4498 55.6015 99.4498H66.3297C66.3297 99.4498 66.9384 97.328 65.9362 96.0085Z" fill="#CCD6DD"/>
<path d="M71.8339 58.161C68.5574 56.4525 64.1718 53.9737 60.7396 49.4463C60.3812 48.9734 57.5027 50.8863 57.7361 51.2097C60.9776 55.6914 64.5059 59.5995 74.63 62.4947C74.7353 62.5252 73.1916 58.8703 71.8339 58.161Z" fill="#FFCC4D"/>
<path d="M75.3466 90.9639C75.5296 90.9059 75.7264 90.8647 75.9171 90.8159C75.6273 90.3857 75.3252 89.9358 75.0202 89.4751C74.8402 89.5285 74.6663 89.591 74.4908 89.652C74.0149 88.9183 73.5878 88.2532 73.2675 87.7407C73.4475 87.6873 73.632 87.6431 73.8197 87.5988C73.4688 87.0222 73.2049 86.5478 73.1088 86.2839C73.1027 86.2671 73.0966 86.2336 73.0905 86.2138C72.9197 86.2595 72.7442 86.2976 72.5795 86.351C72.4239 85.8065 72.2515 85.0026 72.0929 84.0553C72.3248 84.0004 72.5581 83.9455 72.8007 83.9043C72.7641 83.4375 72.732 82.9265 72.7015 82.3804C72.4178 82.4246 72.1432 82.4795 71.8717 82.5421C71.768 81.729 71.6841 80.8748 71.6337 80.0267C71.948 79.9626 72.2714 79.9153 72.6024 79.8802C72.5887 79.3738 72.581 78.8613 72.5764 78.3503C72.2393 78.3823 71.9053 78.4189 71.5834 78.4753C71.5819 78.184 71.5987 77.7645 71.6154 77.4259C72.6054 76.1415 73.2293 74.4681 72.7031 72.1357L60.6691 72.2761C60.6691 72.2761 58.9805 86.0444 58.9805 87.312C58.9805 88.5751 59.7676 94.2191 60.2466 96.2448C60.4067 96.9145 66.2109 97.1814 66.0019 95.7049C65.8707 94.7911 65.018 88.8527 65.1569 88.1571C65.288 87.4997 65.9394 84.1956 67.056 81.8526L67.1536 82.536C67.2329 82.446 67.3184 82.3651 67.4007 82.2797C67.4846 83.0531 67.5884 83.8051 67.7058 84.5038C67.628 84.5663 67.5472 84.6258 67.4724 84.6914C67.5792 85.3946 67.6768 86.02 67.7638 86.5371C67.8538 86.4365 67.9529 86.3449 68.0475 86.2488C68.2367 87.0558 68.7812 88.2792 68.8911 88.4607C68.7599 88.5812 68.6378 88.7124 68.5143 88.8405C68.74 89.2112 69.0329 89.6658 69.3639 90.1646C69.4799 90.0334 69.5989 89.9052 69.7239 89.7817C70.1068 90.3796 70.5446 91.0539 71.0007 91.7495C70.8893 91.8562 70.7902 91.9768 70.6849 92.0881C70.9885 92.5183 71.2951 92.9454 71.5941 93.3496C71.681 93.2505 71.7726 93.1574 71.8641 93.0628C72.5154 94.0528 73.1317 94.9833 73.5893 95.6713C73.9508 95.7491 74.5213 95.5493 75.1132 95.2076C74.6312 94.483 73.8547 93.313 73.0417 92.0759C73.3193 91.8883 73.6107 91.7159 73.9173 91.5603C74.6205 92.6357 75.3512 93.7432 75.9476 94.6416C76.4052 94.2847 76.8034 93.8866 77.0367 93.5235C76.5196 92.7471 75.9293 91.8532 75.3466 90.9639ZM69.1031 83.5534C68.9902 82.7862 68.8926 81.9609 68.8224 81.1235C69.2343 80.8657 69.669 80.6369 70.1343 80.4553C70.1922 81.3065 70.2792 82.1623 70.3875 82.9814C69.9405 83.1477 69.5073 83.3338 69.1031 83.5534ZM69.3761 85.178C69.7666 84.9309 70.18 84.7082 70.6224 84.5236C70.7902 85.4816 70.9778 86.3144 71.167 86.9261C70.7963 87.1061 70.4439 87.3059 70.1068 87.5256C70.0443 87.4188 69.5775 86.2046 69.3761 85.178ZM72.1997 90.7976C71.7359 90.0883 71.2951 89.408 70.9183 88.8192C71.2051 88.6315 71.5071 88.4607 71.8244 88.3051C72.1356 88.81 72.5734 89.4964 73.0753 90.2713C72.7702 90.433 72.4803 90.6085 72.1997 90.7976Z" fill="#4289C1"/>
<path d="M70.0671 78.9982C70.6773 78.4917 71.2844 77.9136 71.7787 77.2196C66.7387 78.1485 62.7254 77.125 60.1886 76.2524L60.004 77.8023C61.9184 78.4414 64.5619 79.1248 67.7928 79.1248C68.5189 79.1233 69.2831 79.0744 70.0671 78.9982ZM66.095 84.3646C66.2536 83.849 66.4382 83.3303 66.635 82.8239C63.726 82.9154 61.3052 82.4059 59.5266 81.901C59.4655 82.4334 59.4076 82.9444 59.3542 83.4356C61.0596 83.9085 63.2852 84.3692 65.9409 84.3692L66.095 84.3646ZM65.1645 88.9164C65.1401 88.5503 65.134 88.2757 65.1569 88.1583C65.1843 88.0195 65.2408 87.7373 65.314 87.3956C62.7696 87.484 60.6279 87.1103 59.0171 86.729C58.9957 86.9913 58.9805 87.2079 58.9805 87.3132C58.9805 87.5267 59.0049 87.8745 59.0445 88.3017C60.5227 88.6342 62.3821 88.9423 64.5558 88.9423C64.7511 88.9408 64.9647 88.921 65.1645 88.9164ZM59.4305 91.4638C59.5037 91.987 59.583 92.5164 59.6623 93.032C60.6203 93.154 61.7186 93.2516 62.9603 93.2516C63.7962 93.2516 64.6962 93.1997 65.6389 93.093C65.5733 92.6018 65.5062 92.0847 65.4436 91.5767C63.0548 91.8482 60.9971 91.685 59.4305 91.4638Z" fill="#88C9F9"/>
<path d="M62.4428 73.106C62.3574 73.5163 59.9991 86.2092 59.9366 86.9521C59.9137 87.2252 59.9 87.4616 59.9091 87.6096C59.9213 87.8216 60.864 95.679 60.9845 96.5973C61.4025 96.6903 61.9547 96.7529 62.5466 96.7727C62.4321 95.9047 61.4483 87.7774 61.433 87.5165C61.4284 87.4402 61.4315 87.3335 61.4391 87.2023C61.4772 86.6028 63.7043 74.5398 63.9377 73.4187L62.4428 73.106Z" fill="#55ACEE"/>
<path d="M66.2414 72.6841C66.2399 72.7054 66.0385 74.8746 65.7655 76.2261C65.6877 76.612 65.5779 77.0407 65.4634 77.4754C65.3368 77.9513 65.1935 78.4471 65.0363 78.9581C64.655 80.1998 64.2126 81.5055 63.7931 82.7289L63.7916 82.735C63.6024 83.2857 62.4904 86.698 62.4355 87.3128C62.4264 87.4211 62.4233 87.5202 62.4279 87.6087C62.4447 87.8772 63.4057 95.8627 63.5247 96.7673C64.0784 96.7413 64.6062 96.6727 65.0348 96.5537C64.9204 95.6812 63.967 87.807 63.9502 87.5172C63.9487 87.4897 63.9579 87.4378 63.9609 87.3982C64.0036 86.9207 65.3262 82.9577 65.3704 82.8265C65.7914 81.5986 66.2201 80.3142 66.5892 79.0832C66.7448 78.5615 66.8836 78.0596 67.0072 77.5745C67.0972 77.2176 67.1933 76.8546 67.2589 76.5281C67.5456 75.0973 67.7485 72.9175 67.7577 72.8244L66.2414 72.6841ZM70.3692 73.5978C70.3692 74.5573 69.9649 76.5159 69.6019 77.5029C69.5332 77.6874 68.319 80.0213 68.0994 80.5216C68.647 80.0747 69.3624 79.5805 70.0793 78.984C70.3859 78.7293 70.688 78.4532 70.9793 78.1557C71.0785 77.901 71.1746 77.6081 71.2646 77.2923C71.6276 76.0232 71.8946 74.4154 71.8946 73.5978H70.3692Z" fill="#55ACEE"/>
<path d="M79.4853 52.4922C79.4853 55.5064 77.0431 57.9516 74.0274 57.9516C71.0116 57.9516 68.5664 55.5064 68.5664 52.4922C68.5664 49.4779 71.0116 47.0327 74.0274 47.0327C77.0416 47.0327 79.4853 49.4764 79.4853 52.4922Z" fill="#FFDC5D"/>
<path d="M71.1822 52.4905C68.5738 50.541 67.236 46.6176 68.2077 45.588C70.0321 43.6538 73.8334 45.4217 74.8096 47.0875C75.7874 48.7563 71.9724 53.0808 71.1822 52.4905Z" fill="#4289C1"/>
<path d="M60.668 72.2756C60.668 72.2756 60.9669 62.5053 65.6469 58.8947C69.1386 56.1977 75.0175 58.2143 76.5765 61.3338C78.1385 64.4533 72.8941 66.1648 72.8941 73.9642C72.8941 75.5247 60.668 75.334 60.668 72.2756Z" fill="#77B255"/>
<path d="M71.5618 53.4026C70.851 55.0317 70.3598 56.4183 70.0547 57.6478C70.9303 58.0612 71.6731 59.6461 72.6494 60C74.2602 60.5842 74.4387 59.5774 74.4753 59.3929C74.8674 57.4144 75.8604 55.5229 76.5011 54.507C77.2821 53.2729 72.4648 51.328 71.5618 53.4026Z" fill="#FFDC5D"/>
<path d="M69.6797 49.2035C69.6797 50.9593 72.2332 56.0465 77.2625 56.0267C79.8969 56.016 80.3698 53.1132 80.356 51.1881C80.3469 49.5391 78.5622 46.6637 76.0727 45.9514C73.5847 45.239 69.6797 46.9871 69.6797 49.2035Z" fill="#50A5E6"/>
<path d="M75.6948 92.5192C77.9829 92.1303 77.6565 94.6335 77.597 95.5304C77.4551 97.666 77.0326 99.4507 75.5194 99.4507H70.4535C70.4535 99.4507 70.1728 97.129 72.8987 96.6012C73.4372 96.496 72.4228 93.0745 75.6948 92.5192Z" fill="#CCD6DD"/>
<path d="M61.57 57.0304C60.4763 55.7673 60.0797 54.0055 60.3558 51.8058C61.2588 51.4108 61.8904 50.5352 61.8904 49.5131C61.8904 48.1204 60.7265 46.9932 59.2895 46.9932C57.8556 46.9932 56.6902 48.1204 56.6902 49.5131C56.6902 49.8274 56.7574 50.1264 56.8657 50.404C56.858 50.4147 56.826 50.4101 56.8229 50.4253C55.4943 61.2908 63.0756 62.3601 65.5666 62.7125C65.7207 62.7339 68.2635 59.2895 68.1079 59.2895C65.0678 59.2895 62.8681 58.5298 61.57 57.0304Z" fill="#FFDC5D"/>
<path d="M62.8194 57.3262C62.2336 59.2833 60.3711 61.4799 60.3711 61.4799C63.0634 63.8885 66.2348 64.102 66.2348 64.102C66.2348 64.102 69.008 60.9765 69.5281 59.0987C67.1622 59.7577 62.8194 57.3262 62.8194 57.3262Z" fill="#77B255"/>
<path d="M85.9159 62.714C85.8961 62.7048 85.8793 62.7033 85.8595 62.6957C85.7847 62.6408 85.7206 62.5798 85.6352 62.5325L61.8083 49.3377C61.1234 48.9578 60.7314 50.7502 61.4163 51.13L84.119 63.6994C83.4539 64.8404 83.0252 66.5534 82.8574 67.2673C82.5691 68.4953 84.5918 69.7232 85.9144 69.7232C87.2369 69.7248 87.481 63.5118 85.9159 62.714Z" fill="#66757F"/>
<path d="M17.4727 11.0132V4.01318H15.4727V11.0132H12.4727V14.0132H20.4727V11.0132H17.4727Z" fill="#58595B"/>
<path d="M31.6843 9.99032L1.74132 1.96732C1.20832 1.82332 0.891319 1.27632 1.03432 0.741319C1.17732 0.208319 1.72532 -0.108681 2.25932 0.0343189L32.143 8C32.677 8.144 33.0523 8.74932 32.9083 9.28332C32.7663 9.81732 32.2183 10.1343 31.6843 9.99032Z" fill="#6D6E71"/>
<path d="M21.8193 3.37438L19.8863 2.85638L20.1453 1.89138L14.3503 0.338379L14.0913 1.30438L12.1593 0.786379C11.0923 0.501379 9.99526 1.13438 9.70926 2.20138C9.42326 3.26738 10.0573 4.36438 11.1233 4.65038L20.7833 7.23838C21.8493 7.52438 22.9463 6.89038 23.2323 5.82438C23.5183 4.75838 22.8853 3.66038 21.8193 3.37438Z" fill="#A7A9AC"/>
<path d="M12.3467 3.94456C12.0607 5.01056 10.9637 5.64456 9.8967 5.35856C8.8307 5.07256 8.1967 3.97556 8.4827 2.90956C8.7687 1.84256 9.8657 1.20956 10.9317 1.49456C11.9997 1.78056 12.6327 2.87656 12.3467 3.94456ZM23.9387 7.04956C23.6527 8.11656 22.5557 8.74956 21.4897 8.46356C20.4227 8.17756 19.7897 7.08156 20.0757 6.01456C20.3607 4.94756 21.4577 4.31456 22.5247 4.60056C23.5907 4.88656 24.2247 5.98356 23.9387 7.04956Z" fill="#808285"/>
<path d="M4.47266 31.0132C4.47266 33.2222 6.26366 35.0132 8.47266 35.0132H24.4727C26.6817 35.0132 28.4727 33.2222 28.4727 31.0132V26.0132H4.47266V31.0132ZM24.4727 13.0132H8.47266C6.99566 13.0132 5.72066 13.8222 5.02766 15.0132H27.9177C27.2247 13.8222 25.9497 13.0132 24.4727 13.0132Z" fill="#DD2E44"/>
<path d="M4.47266 17.0132H28.4727V26.0132H4.47266V17.0132Z" fill="#88C9F9"/>
<path d="M5.02766 15.0132C4.68366 15.6032 4.47266 16.2812 4.47266 17.0132H28.4727C28.4727 16.2812 28.2617 15.6032 27.9177 15.0132H5.02766Z" fill="#55ACEE"/>
<path d="M10.4727 15.0132H12.4727V26.0132H10.4727V15.0132ZM19.4727 15.0132H21.4727V26.0132H19.4727V15.0132Z" fill="#231F20"/>
<path d="M32.6667 24.1364L34.6667 20.0455L30.6667 21.4091L28 18L26.6667 21.4091L22.6667 20.7273L25.3333 24.8182L22 27.5455H26L24.6667 31.6364L28.6667 29.5909L32.6667 33L32 27.5455L36 26.8636L32.6667 24.1364Z" fill="#FFC107"/>
<path d="M28.7273 27.1538L27.0909 28.3846L27.6364 26.5385L26 25.9231L27.6364 24.6923L26 22.8462H28.1818L28.7273 21L29.8182 22.8462L31.4545 22.2308L30.3636 24.0769L32 25.9231L30.3636 26.5385L30.9091 29L28.7273 27.1538Z" fill="white"/>
<path d="M84.9381 52C84.1315 52 83.7759 51.4141 84.1472 50.6981L90.9825 37.537C91.3542 36.821 91.9625 36.821 92.3343 37.537L99.1695 50.6986C99.5417 51.4141 99.1857 52 98.3791 52H84.9381Z" fill="#FFCC4D"/>
<path d="M90.6016 49.3521C90.6016 48.7684 91.0767 48.2932 91.6608 48.2932C92.2446 48.2932 92.7197 48.7684 92.7197 49.3521C92.7197 49.9363 92.2441 50.4114 91.6608 50.4114C91.0767 50.4114 90.6016 49.9363 90.6016 49.3521ZM90.683 41.3416C90.683 40.7714 91.1038 40.4185 91.6604 40.4185C92.2038 40.4185 92.6382 40.785 92.6382 41.3416V46.5692C92.6382 47.1258 92.2038 47.4923 91.6604 47.4923C91.1038 47.4923 90.683 47.1389 90.683 46.5692V41.3416Z" fill="#231F20"/>
</svg>
